<?xml version="1.0" standalone="no"?>
<!DOCTYPE svg PUBLIC "-//W3C//DTD SVG 20010904//EN"
 "http://www.w3.org/TR/2001/REC-SVG-20010904/DTD/svg10.dtd">
<svg version="1.0" xmlns="http://www.w3.org/2000/svg"
 width="500.000000pt" height="500.000000pt" viewBox="0 0 500.000000 500.000000"
 preserveAspectRatio="xMidYMid meet">
<metadata>
Created by potrace 1.14, written by Peter Selinger 2001-2017
</metadata>
<g transform="translate(0.000000,500.000000) scale(0.100000,-0.100000)"
fill="#000000" stroke="none">
<path d="M2293 3263 c-111 -262 -200 -479 -197 -482 3 -3 52 11 111 30 l106
35 14 53 c7 30 28 81 45 114 32 59 108 147 128 147 16 0 89 -79 117 -127 14
-24 36 -76 48 -116 l23 -71 98 -33 c55 -18 104 -32 111 -31 12 3 -384 958
-397 958 -3 0 -96 -215 -207 -477z"/>
<path d="M2459 2993 c-34 -54 -59 -131 -59 -179 0 -33 -1 -34 -82 -59 -46 -14
-245 -76 -443 -138 l-360 -113 -8 -43 c-5 -23 -7 -45 -5 -47 2 -2 104 9 226
24 122 16 222 26 222 22 0 -3 -23 -59 -50 -124 -27 -65 -50 -122 -50 -127 0
-6 75 -8 177 -7 l176 3 34 120 c18 66 33 126 33 133 0 9 -26 12 -95 12 -52 0
-95 4 -95 8 0 7 291 45 296 39 2 -1 -15 -65 -36 -142 -22 -77 -39 -148 -40
-157 0 -17 16 -18 200 -18 184 0 200 1 200 18 0 9 -18 80 -40 156 -22 77 -38
141 -37 142 6 7 297 -31 297 -38 0 -4 -43 -8 -95 -8 -69 0 -95 -3 -95 -12 0
-7 15 -67 33 -133 l34 -120 176 -3 c102 -1 177 1 177 7 0 5 -22 62 -50 127
-27 65 -50 121 -50 124 0 4 100 -6 222 -22 122 -15 224 -26 226 -24 2 2 0 24
-5 47 l-8 43 -360 113 c-198 62 -397 124 -442 138 -79 24 -83 27 -83 54 0 69
-71 231 -101 231 -5 0 -23 -21 -40 -47z"/>
<path d="M1535 1865 c-53 -52 -23 -114 71 -145 53 -17 78 -45 54 -60 -25 -16
-59 -11 -77 10 -20 23 -73 27 -73 6 0 -27 44 -67 83 -76 74 -16 140 22 140 81
0 40 -28 67 -94 89 -45 14 -54 21 -54 41 0 20 6 25 32 27 24 2 34 -2 43 -17 7
-14 21 -21 40 -21 39 0 39 22 1 61 -26 25 -37 29 -86 29 -46 0 -60 -4 -80 -25z"/>
<path d="M1770 1745 l0 -145 30 0 30 0 0 145 0 145 -30 0 -30 0 0 -145z"/>
<path d="M1933 1870 c-81 -49 -94 -168 -26 -232 91 -85 253 -28 253 90 l0 32
-80 0 c-79 0 -80 0 -80 -25 0 -23 4 -25 45 -25 25 0 45 -4 45 -8 0 -21 -41
-44 -77 -44 -72 0 -109 86 -62 146 26 34 96 37 124 6 20 -22 75 -28 75 -7 0
21 -29 56 -60 72 -41 21 -118 19 -157 -5z"/>
<path d="M2197 1883 c-4 -3 -7 -69 -7 -145 l0 -138 35 0 35 0 0 60 0 60 55 0
55 0 0 -60 0 -60 35 0 35 0 0 145 0 145 -35 0 -35 0 0 -55 0 -55 -55 0 -55 0
0 55 c0 54 -1 55 -28 55 -16 0 -32 -3 -35 -7z"/>
<path d="M2467 1883 c-4 -3 -7 -17 -7 -30 0 -21 4 -23 50 -23 l50 0 0 -115 0
-115 30 0 30 0 0 115 0 115 45 0 c43 0 45 1 45 30 l0 30 -118 0 c-65 0 -122
-3 -125 -7z"/>
<path d="M2749 1861 c-16 -16 -29 -39 -29 -50 0 -33 42 -71 100 -90 46 -15 55
-22 55 -42 0 -20 -6 -25 -32 -27 -24 -2 -35 2 -45 17 -16 26 -78 30 -78 5 0
-25 56 -74 87 -76 77 -4 110 7 128 43 31 60 3 105 -81 128 -53 15 -67 25 -62
47 5 28 63 32 80 5 8 -13 23 -21 40 -21 37 0 38 32 2 65 -22 20 -37 25 -81 25
-47 0 -59 -4 -84 -29z"/>
<path d="M2980 1745 l0 -145 35 0 35 0 0 60 c0 56 2 60 23 60 19 0 29 -12 52
-60 28 -58 30 -60 67 -60 21 0 38 2 38 4 0 2 -16 32 -35 67 l-36 62 31 73 c16
40 30 75 30 78 0 3 -15 6 -34 6 -31 0 -36 -4 -46 -37 -16 -50 -38 -73 -67 -73
-21 0 -23 4 -23 55 l0 55 -35 0 -35 0 0 -145z"/>
<path d="M3266 1823 c21 -38 46 -81 56 -98 10 -18 18 -50 18 -77 0 -47 1 -48
30 -48 29 0 30 1 30 50 0 42 8 65 50 138 28 48 50 91 50 95 0 4 -16 7 -35 7
-33 0 -37 -4 -62 -55 -15 -30 -31 -55 -35 -55 -5 0 -20 25 -35 55 -26 52 -29
55 -66 55 l-38 0 37 -67z"/>
<path d="M1390 1374 l0 -65 37 3 c93 8 91 128 -3 128 l-34 0 0 -66z m78 34
c15 -13 16 -50 0 -66 -7 -7 -25 -12 -40 -12 -26 0 -28 3 -28 43 0 24 3 47 7
50 8 8 42 -1 61 -15z"/>
<path d="M1610 1375 c0 -37 4 -65 10 -65 6 0 10 28 10 65 0 37 -4 65 -10 65
-6 0 -10 -28 -10 -65z"/>
<path d="M1767 1422 c-38 -41 -10 -112 44 -112 30 0 43 9 58 37 16 32 15 33
-26 32 -31 -2 -33 -3 -10 -6 32 -5 34 -17 6 -36 -38 -27 -88 9 -74 53 11 33
42 44 72 25 29 -20 47 -10 19 11 -27 19 -70 18 -89 -4z"/>
<path d="M1990 1375 c0 -37 4 -65 10 -65 6 0 10 28 10 65 0 37 -4 65 -10 65
-6 0 -10 -28 -10 -65z"/>
<path d="M2140 1431 c22 -6 26 -13 31 -66 l5 -60 5 60 c4 53 7 60 29 66 16 5
5 7 -35 7 -40 0 -51 -2 -35 -7z"/>
<path d="M2348 1375 c-15 -36 -23 -65 -18 -65 4 0 10 7 14 15 3 9 19 15 41 15
24 0 35 -4 35 -15 0 -8 5 -15 10 -15 6 0 10 1 10 3 0 14 -50 122 -57 124 -5 2
-21 -26 -35 -62z m52 -7 c0 -11 -8 -18 -20 -18 -23 0 -25 12 -9 42 9 17 13 18
20 7 5 -8 9 -22 9 -31z"/>
<path d="M2550 1375 l0 -65 40 0 c22 0 40 5 40 10 0 6 -13 10 -30 10 -30 0
-30 1 -30 55 0 30 -4 55 -10 55 -6 0 -10 -28 -10 -65z"/>
<path d="M2891 1398 c-28 -67 -34 -88 -22 -88 6 0 11 7 11 15 0 10 10 15 34
15 21 0 36 -6 40 -15 3 -8 10 -15 15 -15 5 0 -2 29 -17 65 -14 36 -29 65 -34
65 -5 0 -17 -19 -27 -42z m44 -25 c5 -19 2 -23 -14 -23 -21 0 -26 15 -15 45 8
19 19 10 29 -22z"/>
<path d="M3092 1373 c1 -61 2 -63 5 -18 l4 50 28 -34 27 -33 22 33 22 34 0
-47 c0 -27 5 -48 10 -48 6 0 10 28 10 65 0 36 -4 65 -9 65 -5 0 -20 -16 -32
-37 l-22 -36 -24 29 c-12 16 -23 32 -23 37 0 4 -4 7 -10 7 -6 0 -9 -28 -8 -67z"/>
<path d="M3350 1431 c22 -6 26 -13 31 -66 l5 -60 5 60 c4 53 7 60 29 66 16 5
5 7 -35 7 -40 0 -51 -2 -35 -7z"/>
<path d="M3552 1378 l-2 -68 41 0 c24 0 38 4 34 10 -3 6 -19 10 -35 10 -28 0
-29 2 -33 58 l-3 57 -2 -67z"/>
</g>
</svg>
