<svg xmlns="http://www.w3.org/2000/svg" xmlns:xlink="http://www.w3.org/1999/xlink" preserveAspectRatio="xMidYMid meet" version="1.0" viewBox="3.0 3.0 18.1 18.0" zoomAndPan="magnify" style="fill: rgb(255, 255, 255);" original_string_length="917"><g id="__id131_sudd4hac4f"><path d="m3,6c0-1.6543,1.3457-3,3-3h2c.55225,0,1,.44727,1,1s-.44775,1-1,1h-2c-.55127,0-1,.44824-1,1v12c0,.55176.44873,1,1,1h2c.55225,0,1,.44727,1,1s-.44775,1-1,1h-2c-1.6543,0-3-1.3457-3-3V6Zm11.29297,11.70703c.19531.19531.45117.29297.70703.29297s.51172-.09766.70703-.29297l5-5c.39062-.39062.39062-1.02344,0-1.41406l-5-5c-.39062-.39062-1.02344-.39062-1.41406,0s-.39062,1.02344,0,1.41406l3.29297,3.29297h-7.58594c-.55225,0-1,.44727-1,1s.44775,1,1,1h7.58594l-3.29297,3.29297c-.39062.39062-.39062,1.02344,0,1.41406Z" style="fill: inherit;"/></g></svg>
